<mxfile host="app.diagrams.net" modified="2023-04-11T10:38:02.642Z" agent="Mozilla/5.0 (Windows NT 10.0; Win64; x64) AppleWebKit/537.36 (KHTML, like Gecko) Chrome/112.0.0.0 Safari/537.36 Edg/112.0.1722.34" etag="nh1F0hGJdyhbUY5PCkpk" version="21.1.5" type="device">
  <diagram name="Page-1" id="zmX_7nYKhh2b6KpRZSAQ">
    <mxGraphModel dx="913" dy="498" grid="1" gridSize="10" guides="1" tooltips="1" connect="1" arrows="1" fold="1" page="1" pageScale="1" pageWidth="850" pageHeight="1100" math="0" shadow="0">
      <root>
        <mxCell id="0" />
        <mxCell id="1" parent="0" />
        <mxCell id="qky37zlisf0Et5MM0OS0-1" value="" style="rounded=0;whiteSpace=wrap;html=1;" vertex="1" parent="1">
          <mxGeometry x="30" y="210" width="90" height="30" as="geometry" />
        </mxCell>
        <mxCell id="qky37zlisf0Et5MM0OS0-2" value="Пользователь" style="text;html=1;strokeColor=none;fillColor=none;align=center;verticalAlign=middle;whiteSpace=wrap;rounded=0;" vertex="1" parent="1">
          <mxGeometry x="45" y="210" width="60" height="30" as="geometry" />
        </mxCell>
        <mxCell id="qky37zlisf0Et5MM0OS0-3" value="" style="rounded=0;whiteSpace=wrap;html=1;" vertex="1" parent="1">
          <mxGeometry x="180" y="210" width="120" height="40" as="geometry" />
        </mxCell>
        <mxCell id="qky37zlisf0Et5MM0OS0-4" value="Элемент поиска&lt;br&gt;билетов" style="text;html=1;strokeColor=none;fillColor=none;align=center;verticalAlign=middle;whiteSpace=wrap;rounded=0;" vertex="1" parent="1">
          <mxGeometry x="180" y="210" width="120" height="35" as="geometry" />
        </mxCell>
        <mxCell id="qky37zlisf0Et5MM0OS0-9" value="" style="rounded=0;whiteSpace=wrap;html=1;" vertex="1" parent="1">
          <mxGeometry x="350" y="210" width="90" height="30" as="geometry" />
        </mxCell>
        <mxCell id="qky37zlisf0Et5MM0OS0-10" value="Список рейсов" style="text;html=1;strokeColor=none;fillColor=none;align=center;verticalAlign=middle;whiteSpace=wrap;rounded=0;" vertex="1" parent="1">
          <mxGeometry x="350" y="210" width="90" height="30" as="geometry" />
        </mxCell>
        <mxCell id="qky37zlisf0Et5MM0OS0-12" value="" style="rounded=0;whiteSpace=wrap;html=1;" vertex="1" parent="1">
          <mxGeometry x="490" y="210" width="110" height="30" as="geometry" />
        </mxCell>
        <mxCell id="qky37zlisf0Et5MM0OS0-13" value="Детализация&lt;br&gt;рейса" style="text;html=1;strokeColor=none;fillColor=none;align=center;verticalAlign=middle;whiteSpace=wrap;rounded=0;" vertex="1" parent="1">
          <mxGeometry x="490" y="210" width="110" height="30" as="geometry" />
        </mxCell>
        <mxCell id="qky37zlisf0Et5MM0OS0-14" value="" style="rounded=0;whiteSpace=wrap;html=1;" vertex="1" parent="1">
          <mxGeometry x="640" y="210" width="110" height="30" as="geometry" />
        </mxCell>
        <mxCell id="qky37zlisf0Et5MM0OS0-15" value="Система оплаты" style="text;html=1;strokeColor=none;fillColor=none;align=center;verticalAlign=middle;whiteSpace=wrap;rounded=0;" vertex="1" parent="1">
          <mxGeometry x="640" y="210" width="110" height="30" as="geometry" />
        </mxCell>
        <mxCell id="qky37zlisf0Et5MM0OS0-16" value="" style="endArrow=none;dashed=1;html=1;rounded=0;exitX=0.5;exitY=1;exitDx=0;exitDy=0;" edge="1" parent="1" source="qky37zlisf0Et5MM0OS0-36">
          <mxGeometry width="50" height="50" relative="1" as="geometry">
            <mxPoint x="330" y="400" as="sourcePoint" />
            <mxPoint x="75" y="560" as="targetPoint" />
          </mxGeometry>
        </mxCell>
        <mxCell id="qky37zlisf0Et5MM0OS0-17" value="" style="endArrow=none;dashed=1;html=1;rounded=0;exitX=0.5;exitY=1;exitDx=0;exitDy=0;" edge="1" parent="1">
          <mxGeometry width="50" height="50" relative="1" as="geometry">
            <mxPoint x="240" y="250" as="sourcePoint" />
            <mxPoint x="240" y="570" as="targetPoint" />
          </mxGeometry>
        </mxCell>
        <mxCell id="qky37zlisf0Et5MM0OS0-18" value="" style="endArrow=none;dashed=1;html=1;rounded=0;exitX=0.5;exitY=1;exitDx=0;exitDy=0;" edge="1" parent="1">
          <mxGeometry width="50" height="50" relative="1" as="geometry">
            <mxPoint x="400" y="240" as="sourcePoint" />
            <mxPoint x="400" y="560" as="targetPoint" />
          </mxGeometry>
        </mxCell>
        <mxCell id="qky37zlisf0Et5MM0OS0-19" value="" style="endArrow=none;dashed=1;html=1;rounded=0;exitX=0.5;exitY=1;exitDx=0;exitDy=0;" edge="1" parent="1">
          <mxGeometry width="50" height="50" relative="1" as="geometry">
            <mxPoint x="544.5" y="240" as="sourcePoint" />
            <mxPoint x="544.5" y="560" as="targetPoint" />
          </mxGeometry>
        </mxCell>
        <mxCell id="qky37zlisf0Et5MM0OS0-20" value="" style="endArrow=none;dashed=1;html=1;rounded=0;exitX=0.5;exitY=1;exitDx=0;exitDy=0;" edge="1" parent="1">
          <mxGeometry width="50" height="50" relative="1" as="geometry">
            <mxPoint x="700" y="240" as="sourcePoint" />
            <mxPoint x="700" y="560" as="targetPoint" />
          </mxGeometry>
        </mxCell>
        <mxCell id="qky37zlisf0Et5MM0OS0-21" value="" style="endArrow=open;html=1;rounded=0;endFill=0;" edge="1" parent="1">
          <mxGeometry width="50" height="50" relative="1" as="geometry">
            <mxPoint x="80" y="280" as="sourcePoint" />
            <mxPoint x="240" y="280" as="targetPoint" />
          </mxGeometry>
        </mxCell>
        <mxCell id="qky37zlisf0Et5MM0OS0-22" value="1: Ввод данных" style="text;html=1;strokeColor=none;fillColor=none;align=center;verticalAlign=middle;whiteSpace=wrap;rounded=0;" vertex="1" parent="1">
          <mxGeometry x="80" y="250" width="140" height="30" as="geometry" />
        </mxCell>
        <mxCell id="qky37zlisf0Et5MM0OS0-23" value="" style="endArrow=open;html=1;rounded=0;endFill=0;" edge="1" parent="1">
          <mxGeometry width="50" height="50" relative="1" as="geometry">
            <mxPoint x="240" y="310" as="sourcePoint" />
            <mxPoint x="400" y="310" as="targetPoint" />
          </mxGeometry>
        </mxCell>
        <mxCell id="qky37zlisf0Et5MM0OS0-24" value="2: Выбор рейса" style="text;html=1;strokeColor=none;fillColor=none;align=center;verticalAlign=middle;whiteSpace=wrap;rounded=0;" vertex="1" parent="1">
          <mxGeometry x="250" y="280" width="140" height="30" as="geometry" />
        </mxCell>
        <mxCell id="qky37zlisf0Et5MM0OS0-25" value="" style="endArrow=open;html=1;rounded=0;endFill=0;" edge="1" parent="1">
          <mxGeometry width="50" height="50" relative="1" as="geometry">
            <mxPoint x="400" y="340" as="sourcePoint" />
            <mxPoint x="540" y="340" as="targetPoint" />
          </mxGeometry>
        </mxCell>
        <mxCell id="qky37zlisf0Et5MM0OS0-26" value="3: Выбор места" style="text;html=1;strokeColor=none;fillColor=none;align=center;verticalAlign=middle;whiteSpace=wrap;rounded=0;" vertex="1" parent="1">
          <mxGeometry x="400" y="310" width="140" height="30" as="geometry" />
        </mxCell>
        <mxCell id="qky37zlisf0Et5MM0OS0-27" value="4: Оформление багжа" style="text;html=1;strokeColor=none;fillColor=none;align=center;verticalAlign=middle;whiteSpace=wrap;rounded=0;" vertex="1" parent="1">
          <mxGeometry x="550" y="359.5" width="140" height="30" as="geometry" />
        </mxCell>
        <mxCell id="qky37zlisf0Et5MM0OS0-28" value="" style="endArrow=open;html=1;rounded=0;endFill=0;" edge="1" parent="1">
          <mxGeometry width="50" height="50" relative="1" as="geometry">
            <mxPoint x="550" y="390" as="sourcePoint" />
            <mxPoint x="550" y="410" as="targetPoint" />
            <Array as="points">
              <mxPoint x="580" y="390" />
              <mxPoint x="580" y="410" />
              <mxPoint x="570" y="410" />
            </Array>
          </mxGeometry>
        </mxCell>
        <mxCell id="qky37zlisf0Et5MM0OS0-29" value="5: Оплата билета" style="text;html=1;strokeColor=none;fillColor=none;align=center;verticalAlign=middle;whiteSpace=wrap;rounded=0;" vertex="1" parent="1">
          <mxGeometry x="1360" y="890" width="130" height="30" as="geometry" />
        </mxCell>
        <mxCell id="qky37zlisf0Et5MM0OS0-30" value="" style="endArrow=open;html=1;rounded=0;endFill=0;" edge="1" parent="1">
          <mxGeometry width="50" height="50" relative="1" as="geometry">
            <mxPoint x="545" y="450" as="sourcePoint" />
            <mxPoint x="700" y="450" as="targetPoint" />
          </mxGeometry>
        </mxCell>
        <mxCell id="qky37zlisf0Et5MM0OS0-31" value="6: Ввод реквизитов" style="text;html=1;strokeColor=none;fillColor=none;align=center;verticalAlign=middle;whiteSpace=wrap;rounded=0;" vertex="1" parent="1">
          <mxGeometry x="710" y="474.25" width="130" height="30" as="geometry" />
        </mxCell>
        <mxCell id="qky37zlisf0Et5MM0OS0-32" style="edgeStyle=orthogonalEdgeStyle;rounded=0;orthogonalLoop=1;jettySize=auto;html=1;exitX=0.5;exitY=1;exitDx=0;exitDy=0;" edge="1" parent="1" source="qky37zlisf0Et5MM0OS0-31" target="qky37zlisf0Et5MM0OS0-31">
          <mxGeometry relative="1" as="geometry" />
        </mxCell>
        <mxCell id="qky37zlisf0Et5MM0OS0-33" value="" style="endArrow=open;html=1;rounded=0;endFill=0;" edge="1" parent="1">
          <mxGeometry width="50" height="50" relative="1" as="geometry">
            <mxPoint x="710" y="499.5" as="sourcePoint" />
            <mxPoint x="710" y="519.5" as="targetPoint" />
            <Array as="points">
              <mxPoint x="740" y="499.5" />
              <mxPoint x="740" y="509.5" />
              <mxPoint x="740" y="519.5" />
              <mxPoint x="730" y="519.5" />
            </Array>
          </mxGeometry>
        </mxCell>
        <mxCell id="qky37zlisf0Et5MM0OS0-34" value="" style="endArrow=open;html=1;rounded=0;endFill=0;" edge="1" parent="1">
          <mxGeometry width="50" height="50" relative="1" as="geometry">
            <mxPoint x="700" y="550" as="sourcePoint" />
            <mxPoint x="80" y="550" as="targetPoint" />
          </mxGeometry>
        </mxCell>
        <mxCell id="qky37zlisf0Et5MM0OS0-35" value="7: Получение электронного билета" style="text;html=1;strokeColor=none;fillColor=none;align=center;verticalAlign=middle;whiteSpace=wrap;rounded=0;" vertex="1" parent="1">
          <mxGeometry x="310" y="520" width="210" height="30" as="geometry" />
        </mxCell>
        <mxCell id="qky37zlisf0Et5MM0OS0-37" value="" style="rounded=0;whiteSpace=wrap;html=1;rotation=90;" vertex="1" parent="1">
          <mxGeometry x="227" y="292" width="24" height="10" as="geometry" />
        </mxCell>
        <mxCell id="qky37zlisf0Et5MM0OS0-38" value="" style="rounded=0;whiteSpace=wrap;html=1;rotation=90;" vertex="1" parent="1">
          <mxGeometry x="391" y="320" width="20" height="10" as="geometry" />
        </mxCell>
        <mxCell id="qky37zlisf0Et5MM0OS0-39" value="" style="rounded=0;whiteSpace=wrap;html=1;rotation=90;" vertex="1" parent="1">
          <mxGeometry x="493.5" y="389.5" width="103" height="10" as="geometry" />
        </mxCell>
        <mxCell id="qky37zlisf0Et5MM0OS0-41" value="" style="rounded=0;whiteSpace=wrap;html=1;rotation=90;" vertex="1" parent="1">
          <mxGeometry x="654.88" y="496.37" width="88.25" height="10" as="geometry" />
        </mxCell>
        <mxCell id="qky37zlisf0Et5MM0OS0-42" value="" style="endArrow=none;dashed=1;html=1;rounded=0;exitX=0.5;exitY=1;exitDx=0;exitDy=0;" edge="1" parent="1" source="qky37zlisf0Et5MM0OS0-2" target="qky37zlisf0Et5MM0OS0-36">
          <mxGeometry width="50" height="50" relative="1" as="geometry">
            <mxPoint x="75" y="240" as="sourcePoint" />
            <mxPoint x="75" y="560" as="targetPoint" />
          </mxGeometry>
        </mxCell>
        <mxCell id="qky37zlisf0Et5MM0OS0-36" value="" style="rounded=0;whiteSpace=wrap;html=1;rotation=90;" vertex="1" parent="1">
          <mxGeometry x="-65" y="410" width="280" height="10" as="geometry" />
        </mxCell>
        <mxCell id="qky37zlisf0Et5MM0OS0-43" value="5: Переход к оплате" style="text;html=1;strokeColor=none;fillColor=none;align=center;verticalAlign=middle;whiteSpace=wrap;rounded=0;" vertex="1" parent="1">
          <mxGeometry x="550" y="420" width="140" height="30" as="geometry" />
        </mxCell>
      </root>
    </mxGraphModel>
  </diagram>
</mxfile>
